<?xml version="1.0" encoding="UTF-8" standalone="no"?>
<!-- Created with Inkscape (http://www.inkscape.org/) -->

<svg
   xmlns:dc="http://purl.org/dc/elements/1.1/"
   xmlns:cc="http://creativecommons.org/ns#"
   xmlns:rdf="http://www.w3.org/1999/02/22-rdf-syntax-ns#"
   xmlns:svg="http://www.w3.org/2000/svg"
   xmlns="http://www.w3.org/2000/svg"
   xmlns:sodipodi="http://sodipodi.sourceforge.net/DTD/sodipodi-0.dtd"
   xmlns:inkscape="http://www.inkscape.org/namespaces/inkscape"
   id="svg2"
   version="1.1"
   inkscape:version="0.91 r13725"
   xml:space="preserve"
   width="685.18951"
   height="82.960083"
   viewBox="0 0 685.18949 82.960081"
   sodipodi:docname="steps.svg"><metadata
     id="metadata8"><rdf:RDF><cc:Work
         rdf:about=""><dc:format>image/svg+xml</dc:format><dc:type
           rdf:resource="http://purl.org/dc/dcmitype/StillImage" /><dc:title></dc:title></cc:Work></rdf:RDF></metadata><defs
     id="defs6" /><sodipodi:namedview
     pagecolor="#ffffff"
     bordercolor="#666666"
     borderopacity="1"
     objecttolerance="10"
     gridtolerance="10"
     guidetolerance="10"
     inkscape:pageopacity="0"
     inkscape:pageshadow="2"
     inkscape:window-width="1440"
     inkscape:window-height="720"
     id="namedview4"
     showgrid="true"
     inkscape:zoom="1.5353417"
     inkscape:cx="585.13811"
     inkscape:cy="29.96775"
     inkscape:window-x="49"
     inkscape:window-y="37"
     inkscape:window-maximized="0"
     inkscape:current-layer="g10"
     fit-margin-top="0"
     fit-margin-left="0"
     fit-margin-right="0"
     fit-margin-bottom="0"><inkscape:grid
       type="xygrid"
       id="grid3477"
       originx="2.4980537e-08"
       originy="0.016800741" /></sodipodi:namedview><g
     id="g10"
     inkscape:groupmode="layer"
     inkscape:label="step_1"
     transform="matrix(1.25,0,0,-1.25,0,82.943286)"><g
       id="g12"
       transform="translate(-0.00139946,-0.00343985)"><g
         id="g14"
         transform="matrix(1,0,0,-1,0,68.219437)"><path
           d="M 14.594,9.723 25.289,34.039"
           style="fill:none;stroke:#c38000;stroke-width:2.4000001;stroke-linecap:butt;stroke-linejoin:miter;stroke-miterlimit:4;stroke-dasharray:none;stroke-opacity:1"
           id="path16"
           inkscape:connector-curvature="0" /></g><g
         id="g18"
         transform="matrix(-0.439797,1,1,0.439797,0,68.219437)"><path
           d="m -35.205,8.646 2.197,-2.198 -7.688,2.197 7.689,2.198 -2.198,-2.197 z"
           style="fill:#c38000;fill-opacity:1;fill-rule:evenodd;stroke:#c38000;stroke-width:0.54922998;stroke-linecap:butt;stroke-linejoin:miter;stroke-miterlimit:4;stroke-dasharray:none;stroke-opacity:1"
           id="path20"
           inkscape:connector-curvature="0" /></g><g
         id="g22"
         transform="matrix(1,0,0,-1,0,68.219437)"><path
           d="m 1.207,42.027 0.145,24.989 97.601,0 0,-39.075 C 85.035,29.07 88.621,39.477 80.906,41.512 c -7.222,1.906 -1.48,11.422 -9.34,12.414 -4.734,0.594 -8.707,-6.129 -11.433,-6.84 -2.422,-0.633 -5.567,5.133 -9.68,6.16 C 47.426,54 43.5,49.969 40.848,50.27 30.848,51.402 29.219,35.926 24.066,37.797 17.254,40.277 19.754,31.805 14.418,26.707 7.055,19.676 10.609,39.941 1.207,42.027 Z"
           style="fill:#00a6ad;fill-opacity:1;fill-rule:nonzero;stroke:#000000;stroke-width:2.4000001;stroke-linecap:butt;stroke-linejoin:miter;stroke-miterlimit:4;stroke-dasharray:none;stroke-opacity:1"
           id="path24"
           inkscape:connector-curvature="0" /></g></g><g
       inkscape:label="step_2"
       id="g3417"
       transform="translate(111.9986,-0.01687754)"><g
         id="g3419"><g
           transform="matrix(-0.530546,-1,-1,0.530546,0,68.219437)"
           id="g3421"><path
             inkscape:connector-curvature="0"
             id="path3423"
             style="fill:none;stroke:#c38000;stroke-width:1.76674604;stroke-linecap:butt;stroke-linejoin:miter;stroke-miterlimit:4;stroke-dasharray:none;stroke-opacity:1"
             d="m 17.558,-37.042 c -12.927,-1.763 -25.701,-2.993 -18.534,-14.276 1.81,-2.683 2.703,-1.618 6.117,-3.726 1.98,-1.222 3.169,-2.228 3.808,-2.798 3.548,-3.156 6.697,-0.357 8.478,2.631 1.763,2.963 1.192,14.985 0.131,18.169 z" /></g><g
           transform="matrix(-0.530546,-1,-1,0.530546,0,68.219437)"
           id="g3425"><path
             inkscape:connector-curvature="0"
             id="path3427"
             style="fill:none;stroke:#c38000;stroke-width:1.76674604;stroke-linecap:butt;stroke-linejoin:miter;stroke-miterlimit:4;stroke-dasharray:none;stroke-opacity:1"
             d="M 17.002,-37.052 1.438,-47.673" /></g><g
           transform="matrix(-1,-0.525835,-0.525835,1,0,68.219437)"
           id="g3429"><path
             inkscape:connector-curvature="0"
             id="path3431"
             style="fill:#c38000;fill-opacity:1;fill-rule:evenodd;stroke:#c38000;stroke-width:0.44254699;stroke-linecap:butt;stroke-linejoin:miter;stroke-miterlimit:4;stroke-dasharray:none;stroke-opacity:1"
             d="m -23.613,-40.264 1.767,-1.77 -6.193,1.771 6.195,1.769 -1.769,-1.77 z" /></g><g
           transform="matrix(-0.530546,-1,-1,0.530546,0,68.219437)"
           id="g3433"><path
             inkscape:connector-curvature="0"
             id="path3435"
             style="fill:none;stroke:#c38000;stroke-width:1.76674604;stroke-linecap:butt;stroke-linejoin:miter;stroke-miterlimit:4;stroke-dasharray:none;stroke-opacity:1"
             d="M 17.587,-37.475 11.073,-55.156" /></g><g
           transform="matrix(-1,0.135767,0.135767,1,0,68.219437)"
           id="g3437"><path
             inkscape:connector-curvature="0"
             id="path3439"
             style="fill:#c38000;fill-opacity:1;fill-rule:evenodd;stroke:#c38000;stroke-width:0.495455;stroke-linecap:butt;stroke-linejoin:miter;stroke-miterlimit:4;stroke-dasharray:none;stroke-opacity:1"
             d="m -51.392,-33.038 1.985,-1.981 -6.938,1.981 6.938,1.984 -1.985,-1.984 z" /></g><g
           transform="matrix(-0.530546,-1,-1,0.530546,0,68.219437)"
           id="g3441"><path
             inkscape:connector-curvature="0"
             id="path3443"
             style="fill:none;stroke:#c38000;stroke-width:1.76674604;stroke-linecap:butt;stroke-linejoin:miter;stroke-miterlimit:4;stroke-dasharray:none;stroke-opacity:1"
             d="M 17.439,-37.018 5.927,-51.941" /></g><g
           transform="matrix(-1,-0.170861,-0.170861,1,0,68.219437)"
           id="g3445"><path
             inkscape:connector-curvature="0"
             id="path3447"
             style="fill:#c38000;fill-opacity:1;fill-rule:evenodd;stroke:#c38000;stroke-width:0.49285799;stroke-linecap:butt;stroke-linejoin:miter;stroke-miterlimit:4;stroke-dasharray:none;stroke-opacity:1"
             d="m -39.486,-40.637 1.973,-1.972 -6.903,1.973 6.901,1.972 -1.971,-1.973 z" /></g><g
           transform="matrix(1,0,0,-1,0,68.219437)"
           id="g3449"><path
             inkscape:connector-curvature="0"
             id="path3451"
             style="fill:none;stroke:#c38000;stroke-width:2.4000001;stroke-linecap:butt;stroke-linejoin:miter;stroke-miterlimit:4;stroke-dasharray:2.4, 2.4;stroke-dashoffset:0;stroke-opacity:1"
             d="M 14.594,9.723 25.289,34.039" /></g><g
           transform="matrix(1,0,0,-1,0,68.219437)"
           id="g3453"><path
             inkscape:connector-curvature="0"
             id="path3455"
             style="fill:#00a6ad;fill-opacity:1;fill-rule:nonzero;stroke:#000000;stroke-width:2.4000001;stroke-linecap:butt;stroke-linejoin:miter;stroke-miterlimit:4;stroke-dasharray:none;stroke-opacity:1"
             d="m 1.207,42.027 0.145,24.989 97.601,0 0,-39.075 C 85.035,29.07 88.621,39.477 80.906,41.512 c -7.222,1.906 -1.48,11.422 -9.34,12.414 -4.734,0.594 -8.707,-6.129 -11.433,-6.84 -2.422,-0.633 -5.567,5.133 -9.68,6.16 C 47.426,54 43.5,49.969 40.848,50.27 30.848,51.402 29.219,35.926 24.066,37.797 17.254,40.277 19.754,31.805 14.418,26.707 7.055,19.676 10.609,39.941 1.207,42.027 Z" /></g></g></g><g
       inkscape:label="step_3"
       id="g3506"
       transform="translate(223.9986,-0.00343985)"><g
         id="g3508"><g
           transform="matrix(1,0,0,-1,0,68.219437)"
           id="g3510"><path
             inkscape:connector-curvature="0"
             id="path3512"
             style="fill:none;stroke:#c38000;stroke-width:2.4000001;stroke-linecap:butt;stroke-linejoin:miter;stroke-miterlimit:4;stroke-dasharray:none;stroke-opacity:1"
             d="M 26.66,37.898 83.902,32.723" /></g><g
           transform="matrix(-1,-0.0904262,-0.0904262,1,0,68.219437)"
           id="g3514"><path
             inkscape:connector-curvature="0"
             id="path3516"
             style="fill:#c38000;fill-opacity:1;fill-rule:evenodd;stroke:#c38000;stroke-width:0.59756202;stroke-linecap:butt;stroke-linejoin:miter;stroke-miterlimit:4;stroke-dasharray:none;stroke-opacity:1"
             d="m -77.419,-39.985 2.391,-2.389 -8.368,2.391 8.366,2.39 -2.389,-2.392 z" /></g><g
           transform="matrix(1,0,0,-1,0,68.219437)"
           id="g3518"><path
             inkscape:connector-curvature="0"
             id="path3520"
             style="fill:none;stroke:#c38000;stroke-width:2.4000001;stroke-linecap:butt;stroke-linejoin:miter;stroke-miterlimit:4;stroke-dasharray:2.4, 2.4;stroke-dashoffset:0;stroke-opacity:1"
             d="M 14.594,9.723 25.289,34.039" /></g><g
           transform="matrix(1,0,0,-1,0,68.219437)"
           id="g3522"><path
             inkscape:connector-curvature="0"
             id="path3524"
             style="fill:#00a6ad;fill-opacity:1;fill-rule:nonzero;stroke:#000000;stroke-width:2.4000001;stroke-linecap:butt;stroke-linejoin:miter;stroke-miterlimit:4;stroke-dasharray:none;stroke-opacity:1"
             d="m 1.207,42.027 0.145,24.989 97.601,0 0,-39.075 C 85.035,29.07 88.621,39.477 80.906,41.512 c -7.222,1.906 -1.48,11.422 -9.34,12.414 -4.734,0.594 -8.707,-6.129 -11.433,-6.84 -2.422,-0.633 -5.567,5.133 -9.68,6.16 C 47.426,54 43.5,49.969 40.848,50.27 30.848,51.402 29.219,35.926 24.066,37.797 17.254,40.277 19.754,31.805 14.418,26.707 7.055,19.676 10.609,39.941 1.207,42.027 Z" /></g></g></g><g
       inkscape:label="step_4"
       id="g3544"
       transform="translate(335.9986,-0.00343985)"><g
         id="g3546"><g
           transform="matrix(1,-0.186504,-0.186504,-1,0,68.219437)"
           id="g3548"><path
             inkscape:connector-curvature="0"
             id="path3550"
             style="fill:none;stroke:#c38000;stroke-width:1.96609795;stroke-linecap:butt;stroke-linejoin:miter;stroke-miterlimit:4;stroke-dasharray:none;stroke-opacity:1"
             d="M 89.963,15.093 C 75.578,13.131 61.362,11.763 69.337,-0.791 c 2.017,-2.989 3.011,-1.804 6.808,-4.149 2.204,-1.36 3.526,-2.478 4.24,-3.115 3.946,-3.513 7.449,-0.397 9.432,2.929 1.962,3.294 1.325,16.675 0.146,20.219 z" /></g><g
           transform="matrix(1,-0.186504,-0.186504,-1,0,68.219437)"
           id="g3552"><path
             inkscape:connector-curvature="0"
             id="path3554"
             style="fill:none;stroke:#c38000;stroke-width:1.96609795;stroke-linecap:butt;stroke-linejoin:miter;stroke-miterlimit:4;stroke-dasharray:none;stroke-opacity:1"
             d="M 89.344,15.083 72.022,3.259" /></g><g
           transform="matrix(1,-0.995803,-0.995803,-1,0,68.219437)"
           id="g3556"><path
             inkscape:connector-curvature="0"
             id="path3558"
             style="fill:#c38000;fill-opacity:1;fill-rule:evenodd;stroke:#c38000;stroke-width:0.354296;stroke-linecap:butt;stroke-linejoin:miter;stroke-miterlimit:4;stroke-dasharray:none;stroke-opacity:1"
             d="m 45.906,-27.326 1.418,-1.416 -4.961,1.416 4.959,1.418 -1.416,-1.418 z" /></g><g
           transform="matrix(1,-0.186504,-0.186504,-1,0,68.219437)"
           id="g3560"><path
             inkscape:connector-curvature="0"
             id="path3562"
             style="fill:none;stroke:#c38000;stroke-width:1.96609795;stroke-linecap:butt;stroke-linejoin:miter;stroke-miterlimit:4;stroke-dasharray:none;stroke-opacity:1"
             d="M 89.994,14.61 82.746,-5.069" /></g><g
           transform="matrix(0.17007,-1,-1,-0.17007,0,68.219437)"
           id="g3564"><path
             inkscape:connector-curvature="0"
             id="path3566"
             style="fill:#c38000;fill-opacity:1;fill-rule:evenodd;stroke:#c38000;stroke-width:0.49292201;stroke-linecap:butt;stroke-linejoin:miter;stroke-miterlimit:4;stroke-dasharray:none;stroke-opacity:1"
             d="m 26.272,-79.626 1.973,-1.973 -6.903,1.975 6.904,1.971 -1.974,-1.973 z" /></g><g
           transform="matrix(1,-0.186504,-0.186504,-1,0,68.219437)"
           id="g3568"><path
             inkscape:connector-curvature="0"
             id="path3570"
             style="fill:none;stroke:#c38000;stroke-width:1.96609795;stroke-linecap:butt;stroke-linejoin:miter;stroke-miterlimit:4;stroke-dasharray:none;stroke-opacity:1"
             d="M 89.827,15.118 77.02,-1.486" /></g><g
           transform="matrix(0.511275,-1,-1,-0.511275,0,68.219437)"
           id="g3572"><path
             inkscape:connector-curvature="0"
             id="path3574"
             style="fill:#c38000;fill-opacity:1;fill-rule:evenodd;stroke:#c38000;stroke-width:0.44518799;stroke-linecap:butt;stroke-linejoin:miter;stroke-miterlimit:4;stroke-dasharray:none;stroke-opacity:1"
             d="m 43.677,-56.059 1.779,-1.783 -6.232,1.783 6.234,1.781 -1.781,-1.781 z" /></g><g
           transform="matrix(1,0,0,-1,0,68.219437)"
           id="g3576"><path
             inkscape:connector-curvature="0"
             id="path3578"
             style="fill:none;stroke:#c38000;stroke-width:2.4000001;stroke-linecap:butt;stroke-linejoin:miter;stroke-miterlimit:4;stroke-dasharray:2.4, 2.4;stroke-dashoffset:0;stroke-opacity:1"
             d="M 26.66,37.898 83.902,32.723" /></g><g
           transform="matrix(1,0,0,-1,0,68.219437)"
           id="g3580"><path
             inkscape:connector-curvature="0"
             id="path3582"
             style="fill:none;stroke:#c38000;stroke-width:2.4000001;stroke-linecap:butt;stroke-linejoin:miter;stroke-miterlimit:4;stroke-dasharray:2.4, 2.4;stroke-dashoffset:0;stroke-opacity:1"
             d="M 14.594,9.723 25.289,34.039" /></g><g
           transform="matrix(1,0,0,-1,0,68.219437)"
           id="g3584"><path
             inkscape:connector-curvature="0"
             id="path3586"
             style="fill:#00a6ad;fill-opacity:1;fill-rule:nonzero;stroke:#000000;stroke-width:2.4000001;stroke-linecap:butt;stroke-linejoin:miter;stroke-miterlimit:4;stroke-dasharray:none;stroke-opacity:1"
             d="m 1.207,42.027 0.145,24.989 97.601,0 0,-39.075 C 85.035,29.07 88.621,39.477 80.906,41.512 c -7.222,1.906 -1.48,11.422 -9.34,12.414 -4.734,0.594 -8.707,-6.129 -11.433,-6.84 -2.422,-0.633 -5.567,5.133 -9.68,6.16 C 47.426,54 43.5,49.969 40.848,50.27 30.848,51.402 29.219,35.926 24.066,37.797 17.254,40.277 19.754,31.805 14.418,26.707 7.055,19.676 10.609,39.941 1.207,42.027 Z" /></g></g></g><g
       inkscape:label="step_5"
       id="g3618"
       transform="translate(447.9986,-0.00343985)"><g
         id="g3620"><g
           transform="matrix(1,0,0,-1,0,68.219437)"
           id="g3622"><path
             inkscape:connector-curvature="0"
             id="path3624"
             style="fill:none;stroke:#c38000;stroke-width:2.4000001;stroke-linecap:butt;stroke-linejoin:miter;stroke-miterlimit:4;stroke-dasharray:none;stroke-opacity:1"
             d="M 88.297,32.48 87.453,6.074" /></g><g
           transform="matrix(0.0319015,-1,-1,-0.0319015,0,68.219437)"
           id="g3626"><path
             inkscape:connector-curvature="0"
             id="path3628"
             style="fill:#c38000;fill-opacity:1;fill-rule:evenodd;stroke:#c38000;stroke-width:0.59969503;stroke-linecap:butt;stroke-linejoin:miter;stroke-miterlimit:4;stroke-dasharray:none;stroke-opacity:1"
             d="m 11.734,-87.173 2.397,-2.396 -8.397,2.396 8.396,2.401 -2.396,-2.401 z" /></g><g
           transform="matrix(1,0,0,-1,0,68.219437)"
           id="g3630"><path
             inkscape:connector-curvature="0"
             id="path3632"
             style="fill:none;stroke:#c38000;stroke-width:2.4000001;stroke-linecap:butt;stroke-linejoin:miter;stroke-miterlimit:4;stroke-dasharray:2.4, 2.4;stroke-dashoffset:0;stroke-opacity:1"
             d="M 26.66,37.898 83.902,32.723" /></g><g
           transform="matrix(1,0,0,-1,0,68.219437)"
           id="g3634"><path
             inkscape:connector-curvature="0"
             id="path3636"
             style="fill:none;stroke:#c38000;stroke-width:2.4000001;stroke-linecap:butt;stroke-linejoin:miter;stroke-miterlimit:4;stroke-dasharray:2.4, 2.4;stroke-dashoffset:0;stroke-opacity:1"
             d="M 14.594,9.723 25.289,34.039" /></g><g
           transform="matrix(1,0,0,-1,0,68.219437)"
           id="g3638"><path
             inkscape:connector-curvature="0"
             id="path3640"
             style="fill:#00a6ad;fill-opacity:1;fill-rule:nonzero;stroke:#000000;stroke-width:2.4000001;stroke-linecap:butt;stroke-linejoin:miter;stroke-miterlimit:4;stroke-dasharray:none;stroke-opacity:1"
             d="m 1.207,42.027 0.145,24.989 97.601,0 0,-39.075 C 85.035,29.07 88.621,39.477 80.906,41.512 c -7.222,1.906 -1.48,11.422 -9.34,12.414 -4.734,0.594 -8.707,-6.129 -11.433,-6.84 -2.422,-0.633 -5.567,5.133 -9.68,6.16 C 47.426,54 43.5,49.969 40.848,50.27 30.848,51.402 29.219,35.926 24.066,37.797 17.254,40.277 19.754,31.805 14.418,26.707 7.055,19.676 10.609,39.941 1.207,42.027 Z" /></g></g></g><text
       xml:space="preserve"
       style="font-style:normal;font-weight:normal;font-size:16px;line-height:125%;font-family:sans-serif;letter-spacing:0px;word-spacing:0px;fill:#000000;fill-opacity:1;stroke:none;stroke-width:1px;stroke-linecap:butt;stroke-linejoin:miter;stroke-opacity:1"
       x="4.9961075e-09"
       y="16.000004"
       id="text3405"
       sodipodi:linespacing="125%"
       transform="scale(1,-1)"><tspan
         sodipodi:role="line"
         id="tspan3407"
         x="4.9961075e-09"
         y="16.000004" /></text>
<text
       xml:space="preserve"
       style="font-style:normal;font-weight:normal;font-size:16px;line-height:125%;font-family:sans-serif;letter-spacing:0px;word-spacing:0px;fill:#000000;fill-opacity:1;stroke:none;stroke-width:1px;stroke-linecap:butt;stroke-linejoin:miter;stroke-opacity:1"
       x="4.9961075e-09"
       y="16.000004"
       id="text3409"
       sodipodi:linespacing="125%"
       transform="scale(1,-1)"><tspan
         sodipodi:role="line"
         id="tspan3411"
         x="4.9961075e-09"
         y="16.000004" /></text>
<text
       xml:space="preserve"
       style="font-style:normal;font-weight:normal;font-size:16px;line-height:125%;font-family:sans-serif;letter-spacing:0px;word-spacing:0px;fill:#000000;fill-opacity:1;stroke:none;stroke-width:1px;stroke-linecap:butt;stroke-linejoin:miter;stroke-opacity:1"
       x="48"
       y="11.999997"
       id="text3417"
       sodipodi:linespacing="125%"
       transform="scale(1,-1)"><tspan
         sodipodi:role="line"
         id="tspan3419"
         x="48"
         y="11.999997" /></text>
<text
       xml:space="preserve"
       style="font-style:normal;font-weight:normal;font-size:16px;line-height:125%;font-family:sans-serif;letter-spacing:0px;word-spacing:0px;fill:#000000;fill-opacity:1;stroke:none;stroke-width:1px;stroke-linecap:butt;stroke-linejoin:miter;stroke-opacity:1"
       x="112"
       y="20.000004"
       id="text3421"
       sodipodi:linespacing="125%"
       transform="scale(1,-1)"><tspan
         sodipodi:role="line"
         id="tspan3423"
         x="112"
         y="20.000004" /></text>
<text
       xml:space="preserve"
       style="font-style:normal;font-weight:normal;font-size:10px;line-height:125%;font-family:sans-serif;letter-spacing:0px;word-spacing:0px;fill:#000000;fill-opacity:1;stroke:none;stroke-width:1px;stroke-linecap:butt;stroke-linejoin:miter;stroke-opacity:1"
       x="456"
       y="11.999997"
       id="text3437"
       sodipodi:linespacing="125%"
       transform="scale(1,-1)"><tspan
         sodipodi:role="line"
         id="tspan3439"
         x="456"
         y="11.999997" /></text>
<text
       xml:space="preserve"
       style="font-style:normal;font-weight:normal;font-size:10px;line-height:125%;font-family:sans-serif;letter-spacing:0px;word-spacing:0px;fill:#000000;fill-opacity:1;stroke:none;stroke-width:1px;stroke-linecap:butt;stroke-linejoin:miter;stroke-opacity:1"
       x="184"
       y="16.000004"
       id="text3452"
       sodipodi:linespacing="125%"
       transform="scale(1,-1)"><tspan
         sodipodi:role="line"
         id="tspan3454"
         x="184"
         y="16.000004" /></text>
</g></svg>